<svg width="74" height="67" viewBox="0 0 74 67" fill="none" xmlns="http://www.w3.org/2000/svg">
<path fill-rule="evenodd" clip-rule="evenodd" d="M45.5666 1.98655L45.5737 1.9906L67.6817 14.2635C72.349 16.8552 74.4307 21.2142 73.9262 25.3821V43.2669C73.9262 44.3024 72.9341 45.1418 71.7103 45.1418C70.4866 45.1418 69.4945 44.3024 69.4945 43.2669V32.8634C68.9412 33.2915 68.337 33.6901 67.6819 34.0539L62.6635 36.8398C62.7346 37.0235 62.773 37.2198 62.773 37.4236V51.9228C62.773 54.3715 61.6683 56.8012 59.992 58.7717C58.3159 60.7419 55.9456 62.3972 53.207 63.1696L53.205 63.1702L41.4241 66.4825L41.4034 66.4882C40.0826 66.8474 38.4804 67 36.9815 67C35.4846 67 33.8859 66.8479 32.5761 66.4851L32.5666 66.4825L20.7857 63.1702L20.7837 63.1696C18.0451 62.3972 15.6748 60.7419 13.9987 58.7717C12.3223 56.8012 11.2177 54.3715 11.2177 51.9228L11.2177 51.9188L11.2546 37.2634C11.255 37.1046 11.2787 36.9504 11.323 36.8032L6.35026 34.0563C-2.11672 29.3792 -2.11677 18.9071 6.35022 14.2299L6.35243 14.2287L28.5766 1.98397L28.5808 1.98164C31.0104 0.63139 34.0956 0.00442356 37.0654 2.33275e-05C40.0333 -0.00437445 43.1274 0.612881 45.5666 1.98655ZM69.5673 24.0396C69.5198 24.1923 69.4945 24.3527 69.4945 24.518V25.1689C69.1673 27.3977 67.7527 29.5293 65.2506 30.9188L43.1291 43.1993L43.1274 43.2002C41.5732 44.0647 39.382 44.556 37.0692 44.556C34.7564 44.556 32.5652 44.0647 31.0111 43.2002L31.0052 43.1969L8.77289 30.9165C2.98511 27.7192 2.98461 20.5684 8.77148 17.3706L8.77289 17.3698L31.003 5.12178L31.0111 5.11728C32.5694 4.25049 34.7634 3.75322 37.0731 3.74979C39.3833 3.74637 41.5672 4.23721 43.1155 5.11059L43.1291 5.11821L65.2504 17.3986C68.0846 18.9724 69.5237 21.4988 69.5673 24.0396ZM45.5618 46.3336L58.3413 39.2392V51.9228C58.3413 53.4425 57.6364 55.122 56.3952 56.581C55.1543 58.0397 53.4999 59.1339 51.8075 59.6117L51.8055 59.6123L40.0379 62.9209C39.2907 63.1226 38.1827 63.2502 36.9815 63.2502C35.7755 63.2502 34.6801 63.1216 33.9587 62.9225L33.9545 62.9214L22.1851 59.6123L15.6756 41.5112L15.6814 39.2106L28.5766 46.3335L28.5794 46.3351C31.0133 47.6882 34.102 48.3058 37.0692 48.3058C40.0375 48.3058 43.1274 47.6877 45.5618 46.3336ZM15.6756 41.5125L22.1831 59.6117C20.4908 59.1339 18.8364 58.0397 17.5955 56.581C16.3548 55.1226 15.6499 53.4439 15.6493 51.9246V51.9228L15.6756 41.5125Z" fill="url(#paint0_linear_1131_1089)"/>
<defs>
<linearGradient id="paint0_linear_1131_1089" x1="79.943" y1="78.2582" x2="-5.48775" y2="59.9724" gradientUnits="userSpaceOnUse">
<stop stop-color="#E5006D"/>
<stop offset="0.1671" stop-color="#C90171"/>
<stop offset="0.4658" stop-color="#961975"/>
<stop offset="0.714" stop-color="#6F1F78"/>
<stop offset="0.899" stop-color="#56207A"/>
<stop offset="1" stop-color="#4C217A"/>
</linearGradient>
</defs>
</svg>
