<svg width="65" height="71" viewBox="0 0 65 71" fill="none" xmlns="http://www.w3.org/2000/svg">
<path fill-rule="evenodd" clip-rule="evenodd" d="M48.0016 5.33333C48.0016 2.39543 50.397 0 53.3349 0H58.6681C61.606 0 64.0015 2.39543 64.0015 5.33333V55.3333C64.0015 58.2712 61.606 60.6667 58.6681 60.6667H53.3349C50.397 60.6667 48.0016 58.2712 48.0016 55.3333V5.33333ZM53.3349 4C52.6061 4 52.0016 4.60457 52.0016 5.33333V55.3333C52.0016 56.0621 52.6061 56.6667 53.3349 56.6667H58.6681C59.3969 56.6667 60.0015 56.0621 60.0015 55.3333V5.33333C60.0015 4.60457 59.3969 4 58.6681 4H53.3349ZM23.9969 15.9677C23.9969 13.0298 26.3923 10.6344 29.3302 10.6344H34.6635C37.6014 10.6344 39.9968 13.0298 39.9968 15.9677V55.3344C39.9968 58.2723 37.6014 60.6677 34.6635 60.6677H29.3302C26.3923 60.6677 23.9969 58.2723 23.9969 55.3344V15.9677ZM29.3302 14.6344C28.6014 14.6344 27.9969 15.2389 27.9969 15.9677V55.3344C27.9969 56.0631 28.6014 56.6677 29.3302 56.6677H34.6635C35.3922 56.6677 35.9968 56.0631 35.9968 55.3344V15.9677C35.9968 15.2389 35.3922 14.6344 34.6635 14.6344H29.3302ZM0 26.6005C0 23.6626 2.39543 21.2672 5.33333 21.2672H10.6666C13.6045 21.2672 15.9999 23.6626 15.9999 26.6005V55.3338C15.9999 58.2717 13.6045 60.6672 10.6666 60.6672H5.33333C2.39543 60.6672 0 58.2717 0 55.3338V26.6005ZM5.33333 25.2672C4.60457 25.2672 4 25.8718 4 26.6005V55.3338C4 56.0626 4.60457 56.6672 5.33333 56.6672H10.6666C11.3953 56.6672 11.9999 56.0626 11.9999 55.3338V26.6005C11.9999 25.8718 11.3953 25.2672 10.6666 25.2672H5.33333ZM0 68.667C0 67.5624 0.89543 66.667 2 66.667H62C63.1046 66.667 64 67.5624 64 68.667C64 69.7716 63.1046 70.667 62 70.667H2C0.89543 70.667 0 69.7716 0 68.667Z" fill="url(#paint0_linear_1131_1086)"/>
<defs>
<linearGradient id="paint0_linear_1131_1086" x1="69.1415" y1="82.5414" x2="-5.82206" y2="69.3841" gradientUnits="userSpaceOnUse">
<stop stop-color="#E5006D"/>
<stop offset="0.1671" stop-color="#C90171"/>
<stop offset="0.4658" stop-color="#961975"/>
<stop offset="0.714" stop-color="#6F1F78"/>
<stop offset="0.899" stop-color="#56207A"/>
<stop offset="1" stop-color="#4C217A"/>
</linearGradient>
</defs>
</svg>
