<svg width="117" height="200" viewBox="0 0 117 200" fill="none" xmlns="http://www.w3.org/2000/svg">
<path d="M0.00458784 51.2589C-0.0249457 51.9762 0.08835 52.6922 0.337504 53.3627C0.586658 54.0333 0.966402 54.6443 1.45339 55.1582C1.94038 55.6721 2.52432 56.078 3.16931 56.3509C3.81429 56.6238 4.50667 56.7581 5.2039 56.7453H23.0024C25.9796 56.7453 28.3527 54.2353 28.7411 51.1922C30.6827 36.621 40.391 26.0036 57.6933 26.0036C72.493 26.0036 86.0414 33.6223 86.0414 51.9474C86.0414 66.0522 77.9728 72.5382 65.2226 82.4004C50.7033 93.2622 39.2044 105.945 40.0242 126.536L40.0889 131.356C40.1116 132.814 40.6898 134.203 41.6988 135.226C42.7079 136.248 44.0668 136.821 45.4824 136.82H62.9789C64.4093 136.82 65.7812 136.235 66.7926 135.194C67.8041 134.153 68.3724 132.74 68.3724 131.267V128.935C68.3724 112.987 74.262 108.344 90.162 95.9277C103.301 85.6434 117 74.2263 117 50.2593C117 16.6966 89.4717 0.481689 59.3329 0.481689C31.9987 0.481689 2.05411 13.5869 0.00458784 51.2589ZM33.5952 179.268C33.5952 191.107 42.7641 199.859 55.3849 199.859C68.5234 199.859 77.5629 191.107 77.5629 179.268C77.5629 167.007 68.5018 158.389 55.3633 158.389C42.7641 158.389 33.5952 167.007 33.5952 179.268Z" fill="black"/>
</svg>
