<svg width="27" height="19" viewBox="0 0 27 19" fill="none" xmlns="http://www.w3.org/2000/svg">
<path d="M13.5 0.244909C9.5578 0.239245 5.62128 0.901941 1.68702 2.24999C1.68702 2.24999 1.12798 3.53007 0.668623 4.58925C0.571731 4.80957 0.505231 5.04203 0.470947 5.28026C3.22085 4.23807 5.97245 3.5244 8.71952 3.12792C8.9744 2.62948 9.4955 2.30096 10.0732 2.30096H11.0531C11.5006 2.30096 11.9084 2.49354 12.1916 2.80507C13.0639 2.77108 13.9361 2.76542 14.8197 2.7994C15.0973 2.48788 15.5051 2.30096 15.9412 2.30096H16.9211C17.4932 2.30096 18.0029 2.61815 18.2635 3.0996C21.0219 3.47343 23.7689 4.19843 26.5273 5.26893C26.4877 5.04237 26.4254 4.80448 26.3291 4.58925C25.8703 3.53007 25.3096 2.24999 25.3096 2.24999C21.373 0.924597 17.4365 0.248874 13.5 0.244909ZM10.0732 3.28085C9.80702 3.28085 9.57479 3.47343 9.52948 3.73964L9.14999 6.02792C8.46464 6.15253 7.79628 6.31112 7.15058 6.5037C6.5955 6.67362 6.1537 7.09276 5.94979 7.63085C5.16815 9.72655 3.19026 15.0281 3.19026 15.0281H23.8086C23.8086 15.0281 21.8375 9.73221 21.0502 7.63085C20.8519 7.09276 20.4045 6.66796 19.8494 6.5037C19.2037 6.31112 18.5353 6.15253 17.85 6.02792L17.4648 3.73964C17.4195 3.47343 17.193 3.28085 16.9211 3.28085H15.9412C15.6807 3.28085 15.4484 3.4621 15.4031 3.72264L15.2785 4.32303H11.7158L11.5912 3.72264C11.5459 3.4621 11.3193 3.28085 11.0531 3.28085H10.0732ZM19.351 4.26073L19.198 5.31425C19.5152 5.39354 19.8267 5.47284 20.1269 5.56913C20.9199 5.9203 21.5826 6.45839 21.8885 7.10975L25.5588 7.98768C25.9213 7.4326 26.3291 6.9285 26.482 6.29979C24.1031 5.35956 21.7299 4.67421 19.351 4.26073ZM7.65468 4.28905C5.27577 4.71385 2.8963 5.38788 0.516826 6.30546C0.68958 6.96815 1.06058 7.41561 1.44063 7.98768L5.11151 7.10975C5.44569 6.37343 6.08573 5.80702 6.86737 5.56913C7.1789 5.4785 7.49042 5.39354 7.80194 5.31425L7.65468 4.28905ZM13.5 6.17518C16.0318 6.17518 18.0879 7.92538 18.0879 10.0834C18.0879 12.2414 16.0318 13.9859 13.5 13.9859C10.9682 13.9859 8.90644 12.2414 8.90644 10.0834C8.90644 7.92538 10.9682 6.17518 13.5 6.17518ZM13.5 7.17206C11.7951 7.17206 10.4131 8.35018 10.4131 9.80018C10.4131 11.2502 11.7951 12.4283 13.5 12.4283C15.2049 12.4283 16.5812 11.2502 16.5812 9.80018C16.5812 8.35018 15.2049 7.17206 13.5 7.17206ZM3.1897 16.3252L4.4222 18.7551H22.5738L23.8029 16.3252H3.1897Z" fill="white"/>
</svg>
