<svg width="16" height="22" viewBox="0 0 16 22" fill="none" xmlns="http://www.w3.org/2000/svg">
<path d="M8 21.311C8 21.311 16 13.8975 16 8.27285C16 6.19809 15.1571 4.2083 13.6569 2.74123C12.1566 1.27415 10.1217 0.449951 8 0.449951C5.87827 0.449951 3.84344 1.27415 2.34315 2.74123C0.842855 4.2083 3.16163e-08 6.19809 0 8.27285C0 13.8975 8 21.311 8 21.311ZM8 12.1843C6.93913 12.1843 5.92172 11.7722 5.17157 11.0387C4.42143 10.3051 4 9.31023 4 8.27285C4 7.23547 4.42143 6.24058 5.17157 5.50704C5.92172 4.7735 6.93913 4.3614 8 4.3614C9.06087 4.3614 10.0783 4.7735 10.8284 5.50704C11.5786 6.24058 12 7.23547 12 8.27285C12 9.31023 11.5786 10.3051 10.8284 11.0387C10.0783 11.7722 9.06087 12.1843 8 12.1843Z" fill="white"/>
</svg>
