<svg width="29" height="29" viewBox="0 0 29 29" fill="none" xmlns="http://www.w3.org/2000/svg">
<path d="M14.5002 5.24491C10.558 5.23924 6.62152 5.90194 2.68727 7.24999C2.68727 7.24999 2.12822 8.53007 1.66887 9.58925C1.57198 9.80957 1.50547 10.042 1.47119 10.2803C4.22109 9.23807 6.9727 8.5244 9.71977 8.12792C9.97465 7.62948 10.4957 7.30096 11.0735 7.30096H12.0534C12.5008 7.30096 12.9086 7.49354 13.1918 7.80507C14.0641 7.77108 14.9364 7.76542 15.82 7.7994C16.0975 7.48788 16.5053 7.30096 16.9414 7.30096H17.9213C18.4934 7.30096 19.0032 7.61815 19.2637 8.0996C22.0221 8.47343 24.7692 9.19843 27.5276 10.2689C27.4879 10.0424 27.4256 9.80448 27.3293 9.58925C26.8705 8.53007 26.3098 7.24999 26.3098 7.24999C22.3733 5.9246 18.4368 5.24887 14.5002 5.24491ZM11.0735 8.28085C10.8073 8.28085 10.575 8.47343 10.5297 8.73964L10.1502 11.0279C9.46488 11.1525 8.79652 11.3111 8.15082 11.5037C7.59574 11.6736 7.15394 12.0928 6.95004 12.6308C6.1684 14.7266 4.19051 20.0281 4.19051 20.0281H24.8088C24.8088 20.0281 22.8377 14.7322 22.0504 12.6308C21.8522 12.0928 21.4047 11.668 20.8496 11.5037C20.2039 11.3111 19.5356 11.1525 18.8502 11.0279L18.4651 8.73964C18.4198 8.47343 18.1932 8.28085 17.9213 8.28085H16.9414C16.6809 8.28085 16.4487 8.4621 16.4034 8.72264L16.2787 9.32303H12.7161L12.5914 8.72264C12.5461 8.4621 12.3196 8.28085 12.0534 8.28085H11.0735ZM20.3512 9.26073L20.1983 10.3142C20.5155 10.3935 20.827 10.4728 21.1272 10.5691C21.9202 10.9203 22.5829 11.4584 22.8887 12.1098L26.559 12.9877C26.9215 12.4326 27.3293 11.9285 27.4823 11.2998C25.1034 10.3596 22.7301 9.67421 20.3512 9.26073ZM8.65492 9.28905C6.27602 9.71385 3.89654 10.3879 1.51707 11.3055C1.68982 11.9682 2.06082 12.4156 2.44088 12.9877L6.11176 12.1098C6.44594 11.3734 7.08598 10.807 7.86762 10.5691C8.17914 10.4785 8.49066 10.3935 8.80219 10.3142L8.65492 9.28905ZM14.5002 11.1752C17.0321 11.1752 19.0881 12.9254 19.0881 15.0834C19.0881 17.2414 17.0321 18.9859 14.5002 18.9859C11.9684 18.9859 9.90668 17.2414 9.90668 15.0834C9.90668 12.9254 11.9684 11.1752 14.5002 11.1752ZM14.5002 12.1721C12.7954 12.1721 11.4133 13.3502 11.4133 14.8002C11.4133 16.2502 12.7954 17.4283 14.5002 17.4283C16.2051 17.4283 17.5815 16.2502 17.5815 14.8002C17.5815 13.3502 16.2051 12.1721 14.5002 12.1721ZM4.18994 21.3252L5.42244 23.7551H23.5741L24.8032 21.3252H4.18994Z" fill="white"/>
</svg>
