<svg width="147" height="54" viewBox="0 0 147 54" fill="none" xmlns="http://www.w3.org/2000/svg">
<g clip-path="url(#clip0_1109_671)">
<path d="M51.7207 19.8989V9.06128H59.4145V19.8989H58.3242V10.0448H52.8222V19.8989H51.7207Z" fill="white"/>
<path d="M61.6875 9.06128H67.6856V10.0448H62.7778V13.9289H67.523V14.9124H62.7778V18.9154H67.6856V19.8989H61.6875V9.06128Z" fill="white"/>
<path d="M71.1388 10.0448H68.6162V9.06128H74.746V10.0448H72.2235V19.8989H71.1219L71.1388 10.0448Z" fill="white"/>
<path d="M75.9814 9.06128H79.0169C80.4183 9.06128 81.2592 9.22427 81.9487 9.63313C82.7895 10.1166 83.2576 11.1001 83.2576 12.346C83.2576 13.4317 82.8708 14.3267 82.1561 14.8323C81.4862 15.3157 80.6846 15.5064 79.1963 15.5064H77.1026V19.8906H75.9814V9.06128ZM79.1206 14.5312C80.1324 14.5312 80.7715 14.429 81.2339 14.1638C81.8141 13.8571 82.1421 13.183 82.1421 12.3322C82.1421 11.2769 81.6936 10.5282 80.906 10.2796C80.4155 10.1166 79.7316 10.0448 78.6441 10.0448H77.1026V14.5312H79.1206Z" fill="white"/>
<path d="M95.938 14.4869C95.9166 15.9863 95.2948 17.4167 94.208 18.4661C93.1212 19.5155 91.6576 20.099 90.1362 20.0894C86.9522 20.0894 84.3203 17.5534 84.3203 14.4869C84.3203 11.3652 86.9382 8.87061 90.2063 8.87061C91.7173 8.88132 93.1638 9.47544 94.2354 10.5255C95.307 11.5755 95.9183 12.9977 95.938 14.4869ZM85.4358 14.4869C85.4342 15.4047 85.7096 16.3022 86.2268 17.0653C86.744 17.8285 87.4798 18.4228 88.3407 18.7727C89.2015 19.1226 90.1484 19.2123 91.0611 19.0304C91.9738 18.8485 92.8109 18.4032 93.4662 17.7511C94.1214 17.0991 94.5651 16.2697 94.7409 15.3684C94.9167 14.4671 94.8166 13.5347 94.4533 12.6896C94.09 11.8446 93.48 11.1251 92.7008 10.6227C91.9216 10.1202 91.0084 9.85749 90.0773 9.86789C88.8445 9.88666 87.6682 10.3807 86.8006 11.2441C85.9329 12.1076 85.443 13.2717 85.4358 14.4869Z" fill="white"/>
<path d="M97.7236 9.06128H100.299C101.639 9.06128 102.455 9.2519 103.08 9.69391C103.406 9.9558 103.666 10.2899 103.837 10.6691C104.008 11.0483 104.085 11.4619 104.064 11.8763C104.064 12.9482 103.691 13.6527 102.842 14.1196C104.122 14.65 104.689 15.4566 104.689 16.791C104.689 17.896 104.226 18.8574 103.453 19.327C102.755 19.7386 101.919 19.8989 100.448 19.8989H97.7236V9.06128ZM100.165 13.7245C101.163 13.7245 101.639 13.6527 102.099 13.4482C102.659 13.1996 102.94 12.6416 102.94 11.8957C102.94 11.2492 102.685 10.6774 102.298 10.4288C101.911 10.1801 101.272 10.0475 100.142 10.0475H98.8251V13.7273L100.165 13.7245ZM100.327 18.9154C101.449 18.9154 102.189 18.7993 102.71 18.5203C103.231 18.2413 103.573 17.5976 103.573 16.849C103.573 15.8821 103.097 15.161 102.306 14.9152C101.816 14.7688 101.266 14.7107 100.134 14.7107H98.8251V18.9181L100.327 18.9154Z" fill="white"/>
<path d="M116.679 17.0533C115.578 19.0617 113.876 20.0921 111.651 20.0921C108.363 20.0921 105.877 17.6887 105.877 14.52C105.877 11.2795 108.304 8.87329 111.575 8.87329C113.851 8.87329 115.779 10.017 116.62 11.879H115.384C115.084 11.3404 114.649 10.8867 114.12 10.5612C113.364 10.0959 112.488 9.85603 111.598 9.87058C110.983 9.86147 110.374 9.97469 109.805 10.2035C109.237 10.4322 108.721 10.7718 108.289 11.2019C107.857 11.632 107.517 12.1436 107.29 12.7062C107.064 13.2688 106.955 13.8707 106.97 14.4758C106.966 15.695 107.452 16.8662 108.323 17.7322C109.194 18.5982 110.377 19.0882 111.614 19.0948C112.622 19.1004 113.602 18.7693 114.395 18.1555C114.789 17.8326 115.139 17.4612 115.437 17.0505L116.679 17.0533Z" fill="white"/>
<path d="M119.549 14.8544V19.8989H118.45V9.06128H119.549V14.0339L124.563 9.06128H126.023L120.592 14.4372L126.023 19.9071H124.535L119.549 14.8544Z" fill="white"/>
<path d="M135.99 9.06128V19.8989H134.889V10.6746L128.344 19.8989H127.243V9.06128H128.344V18.2855L134.889 9.06128H135.99Z" fill="white"/>
<path d="M147 9.06115V19.8987H145.899V10.6745L139.354 19.8987H138.252V9.06115H139.354V18.2854L145.899 9.06115H147ZM141.257 6.24609C141.257 7.16879 141.764 7.55279 142.625 7.55279C143.485 7.55279 143.995 7.16879 143.995 6.24609H145.117C144.878 7.62738 143.942 8.22686 142.63 8.22686C141.319 8.22686 140.388 7.63843 140.147 6.24609H141.257Z" fill="white"/>
<path d="M53.1866 31.2667V37.7311H51.7852V23.8464H53.1866V30.2169L59.6107 23.8464H61.4773L54.5207 30.7363L61.4773 37.7449H59.5714L53.1866 31.2667Z" fill="white"/>
<path d="M76.5929 30.7972C76.5929 34.7449 73.2295 37.9799 69.1598 37.9799C65.09 37.9799 61.707 34.7311 61.707 30.7972C61.707 26.797 65.0704 23.6145 69.255 23.6145C71.188 23.6287 73.0384 24.3885 74.4099 25.7311C75.7815 27.0736 76.5651 28.8922 76.5929 30.7972ZM63.1393 30.7972C63.1371 31.973 63.4898 33.1229 64.1524 34.1007C64.8149 35.0785 65.7576 35.8399 66.8604 36.2883C67.9632 36.7367 69.1764 36.8518 70.3457 36.6189C71.515 36.3859 72.5876 35.8155 73.4272 34.9802C74.2668 34.1449 74.8354 33.0824 75.0607 31.9277C75.2861 30.7731 75.158 29.5785 74.6927 28.4957C74.2275 27.413 73.4461 26.4911 72.4479 25.8473C71.4497 25.2034 70.2798 24.8666 69.0869 24.8798C65.8608 24.8798 63.1365 27.6037 63.1365 30.7972H63.1393Z" fill="white"/>
<path d="M83.7593 25.4239L78.4339 37.7311H76.9092L82.9885 23.8464H84.5525L90.6122 37.7311H89.0875L83.7593 25.4239Z" fill="white"/>
<path d="M97.8634 25.4239L92.538 37.7311H91.0161L97.0758 23.8464H98.6398L104.7 37.7311H103.169L97.8634 25.4239Z" fill="white"/>
<path d="M106.365 23.8464H114.064V25.1062H107.775V30.0788H113.854V31.3385H107.775V36.4659H114.064V37.7256H106.365V23.8464Z" fill="white"/>
<path d="M130.951 40.2865H129.961L129.426 37.7311H116.998L116.466 40.2865H115.474V36.4714H116.923L122.413 23.8464H124.014L129.516 36.4714H130.962L130.951 40.2865ZM127.997 36.4714L123.212 25.4211L118.428 36.4714H127.997Z" fill="white"/>
<path d="M138.499 37.7311V31.1562L133.174 37.7311H131.399L137.109 30.7363L131.408 23.8602H133.16L138.485 30.3412V23.8464H139.886V30.3274L145.212 23.8464H146.966L141.302 30.7363L147 37.7449H145.229L139.903 31.17V37.7449L138.499 37.7311Z" fill="white"/>
<path fill-rule="evenodd" clip-rule="evenodd" d="M45.742 34.5211V5.01683C45.742 2.73771 44.5844 0 39.2535 0H6.35664C-0.583162 0 0.0138413 4.52233 0.0138413 7.39817V35.1565C0.0138413 39.2202 1.26951 43.2066 8.70262 47.4499C18.8965 53.2707 22.8905 53.9945 22.8905 53.9945C22.8905 53.9945 26.2876 53.1823 36.6244 48.0881C46.9612 42.9939 45.742 34.5211 45.742 34.5211ZM34.284 37.8887H26.7388V15.9953H19.0675V37.8887H11.5167V8.80708H34.2784L34.284 37.8887Z" fill="white"/>
</g>
<defs>
<clipPath id="clip0_1109_671">
<rect width="147" height="54" fill="white"/>
</clipPath>
</defs>
</svg>
